<?xml version="1.0" encoding="UTF-8"?>
<!DOCTYPE svg PUBLIC "-//W3C//DTD SVG 1.1//EN" "http://www.w3.org/Graphics/SVG/1.1/DTD/svg11.dtd">
<!-- Creator: CorelDRAW 2021.5 -->
<svg xmlns="http://www.w3.org/2000/svg" xml:space="preserve" width="297mm" height="210mm" version="1.1" style="shape-rendering:geometricPrecision; text-rendering:geometricPrecision; image-rendering:optimizeQuality; fill-rule:evenodd; clip-rule:evenodd"
viewBox="0 0 29700 21000"
 xmlns:xlink="http://www.w3.org/1999/xlink"
 xmlns:xodm="http://www.corel.com/coreldraw/odm/2003">
 <defs>
  <style type="text/css">
   <![CDATA[
    .fil1 {fill:black}
    .fil0 {fill:#B64326}
   ]]>
  </style>
 </defs>
 <g id="Слой_x0020_1">
  <metadata id="CorelCorpID_0Corel-Layer"/>
  <g id="_2147783159440">
   <g id="_2144180942192">
    <path class="fil0" d="M8977.17 11539.26c67.69,-289.2 717.75,-1124.36 893.08,-1341.9 663.1,-822.77 1553.01,-1505.18 2529.35,-1968.48 1550.63,-735.81 4748.57,-1820.9 6520.05,-2425.08 265.38,-90.51 1496.53,-533.35 1660.24,-558.6 297.82,-227.9 821.78,-674.05 1064.9,-950.12 57.74,-65.57 66.28,-92.25 132.38,-158.7 98.39,-98.94 163.12,-195.38 252.07,-303.64 136.62,-166.28 648.34,-881.12 694.08,-1052.41l-1305.53 652.66c-286.73,134.07 -554.64,224.89 -873.54,317.26 -405.89,117.55 -861.01,202.34 -1295.13,266.13l-2824.5 324.47c-468.12,40.21 -948.44,121.5 -1403.23,184.5 -236,32.69 -459.02,64.69 -684.24,109.62 -720.4,143.72 -1193.42,206.64 -1960.49,421.09 -497.39,139.06 -1271.36,383.65 -1737.99,617.13 -177.14,88.64 -359.57,168.04 -526.68,267.18 -337.37,200.17 -637.5,389.56 -904.16,657.1 -328.98,330.05 -460.29,449.45 -716.3,871.42 -670.58,1105.31 -738.74,2312.96 -746.07,3594.4 -2.14,373.85 115.59,1498.65 185.58,1799.07 112.08,-128.95 454.21,-647.99 748.77,-997.73l297.36 -325.37z"/>
    <path class="fil0" d="M16001.96 9501.68c0,730.53 -52.36,924.95 -274.26,1578.08 -481.14,1416.12 -1739.82,2773.5 -3162.23,3241.58 -1180.25,388.4 -2251.61,410.16 -3443.73,49.45 -95.09,-28.78 -202.81,-69.84 -294.35,-102.58 -96.94,-34.68 -210.88,-100.62 -314.18,-109.21 186.33,278.25 726.33,790.88 1032.18,1005.39 801.42,562.08 1572.67,899.87 2725.43,899.87 2434.08,0 4233.92,-3121.48 4233.92,-5213.01 0,-331.96 -86.59,-723.47 -153.08,-984.79 -39.5,-155.23 -197.18,-713.92 -376.16,-761.71 0,167.87 26.46,220.94 26.46,396.93z"/>
    <path class="fil1" d="M8977.17 11539.26c90.14,-92.22 174.57,-175.42 270.36,-271.24 237.6,-237.66 326.2,-298.11 603.87,-507.53 377.29,-284.56 620.87,-399.4 1051.89,-615.22 265.89,-133.13 533.78,-205.6 819.59,-318.28 1114.03,-439.21 2049.76,-870.35 3133.61,-1338.47 906.51,-391.52 1420.15,-632.33 2274.84,-1059.38l738.26 -399.6c1092.88,-652.27 1604.16,-941.28 2710.3,-1784.34 -163.71,25.25 -1394.86,468.09 -1660.24,558.6 -1771.48,604.18 -4969.42,1689.27 -6520.05,2425.08 -976.34,463.3 -1866.25,1145.71 -2529.35,1968.48 -175.33,217.54 -825.39,1052.7 -893.08,1341.9z"/>
    <path class="fil1" d="M10127.39 13021.13c976.81,516.86 2203.86,477.52 3010.12,-324.09 406.61,-404.27 668.1,-973.29 668.1,-1713.48 0,-244.23 -54.23,-551.76 -132.31,-714.48 -349.58,167.74 -1895.11,244.99 -2994.05,1716.19 -197.07,263.83 -476.99,714.49 -551.86,1035.86z"/>
    <path class="fil1" d="M16240.12 8337.35l0 26.47c444.97,0 854.9,-9.63 1262.95,-60.16 365.69,-45.28 783.47,-100.02 1134.66,-188.43 189.87,-47.8 338.64,-85.13 529.25,-132.31 188.26,-46.59 326.33,-97.77 503.56,-157.99 513.18,-174.38 1334.95,-598.54 1777.37,-895.29 269.14,-180.52 519.92,-361.13 772.63,-550.48 485.55,-363.81 849.32,-657.24 1384.41,-944.24 90.18,-48.38 167.72,-60.3 229.77,-114.24 -882.97,0 -2188.06,511.09 -2991.38,977.92l-3272.16 1676.24c-301.51,117.88 -1023.81,362.51 -1331.06,362.51z"/>
    <path class="fil0" d="M7322.42 15852.57c0,984.29 171.45,1370.5 506.43,2192.69 18.61,45.68 29.9,74.65 57.06,128.17l71.6 113.64 71.38 -722.47c41.96,-256.48 85.4,-422.84 166.43,-627.43 76.24,-192.46 161.04,-357.71 269.73,-524.14 113.3,-173.49 300.46,-357.19 365.7,-454.62 -43.43,-64.85 -197.83,-205.34 -312.76,-375.25 -302.64,-447.45 -388.79,-663.65 -537.1,-1182.93 -28.04,-98.19 -27.06,-185.77 -102.77,-241.23l-366.7 744.7c-97.71,263.23 -189,595.67 -189,948.87z"/>
   </g>
  </g>
 </g>
</svg>
